<svg width="21" height="21" viewBox="0 0 21 21" fill="none" xmlns="http://www.w3.org/2000/svg">
<path d="M10.5742 0.630371C5.07421 0.630371 0.574219 5.1384 0.574219 10.6906C0.574219 15.7107 4.23421 19.8774 9.01421 20.6304V13.6023H6.47421V10.6906H9.01421V8.47174C9.01421 5.95166 10.5042 4.56611 12.7942 4.56611C13.8842 4.56611 15.0242 4.75688 15.0242 4.75688V7.2368H13.7642C12.5242 7.2368 12.1342 8.00989 12.1342 8.80306V10.6906H14.9142L14.4642 13.6023H12.1342V20.6304C14.4906 20.2567 16.6364 19.0496 18.1841 17.2268C19.7318 15.4041 20.5795 13.0858 20.5742 10.6906C20.5742 5.1384 16.0742 0.630371 10.5742 0.630371Z" fill="#1B46D6"/>
</svg>
