<svg width="19" height="19" viewBox="0 0 19 19" fill="none" xmlns="http://www.w3.org/2000/svg">
<path d="M10.4994 0.376465C11.5119 0.379165 12.0258 0.384565 12.4694 0.397164L12.644 0.403464C12.8456 0.410664 13.0445 0.419664 13.2848 0.430463C14.2423 0.475462 14.8957 0.626659 15.469 0.848953C16.0629 1.07755 16.5633 1.38714 17.0637 1.88663C17.5215 2.33638 17.8756 2.88063 18.1013 3.48139C18.3236 4.05468 18.4748 4.70806 18.5198 5.66654C18.5306 5.90593 18.5396 6.10483 18.5468 6.30732L18.5522 6.48192C18.5657 6.92471 18.5711 7.43859 18.5729 8.45107L18.5738 9.12245V10.3014C18.576 10.9579 18.5691 11.6143 18.5531 12.2706L18.5477 12.4452C18.5405 12.6477 18.5315 12.8466 18.5207 13.086C18.4757 14.0444 18.3227 14.6969 18.1013 15.2711C17.8756 15.8719 17.5215 16.4161 17.0637 16.8659C16.614 17.3237 16.0697 17.6778 15.469 17.9035C14.8957 18.1258 14.2423 18.277 13.2848 18.322L12.644 18.349L12.4694 18.3544C12.0258 18.367 11.5119 18.3733 10.4994 18.3751L9.82806 18.376H8.65002C7.99329 18.3783 7.33656 18.3714 6.68002 18.3553L6.50543 18.3499C6.29179 18.3418 6.0782 18.3325 5.86466 18.322C4.90711 18.277 4.25375 18.1258 3.67957 17.9035C3.07915 17.6777 2.53523 17.3236 2.08575 16.8659C1.62763 16.4162 1.27319 15.8719 1.04721 15.2711C0.824918 14.6978 0.673726 14.0444 0.628728 13.086L0.601729 12.4452L0.59723 12.2706C0.58064 11.6143 0.573139 10.9579 0.574731 10.3014V8.45107C0.57224 7.79463 0.57884 7.13818 0.59453 6.48192L0.600829 6.30732C0.608029 6.10483 0.617029 5.90593 0.627828 5.66654C0.672826 4.70806 0.824018 4.05558 1.04631 3.48139C1.27282 2.88038 1.62788 2.33611 2.08665 1.88663C2.53587 1.42903 3.07947 1.07491 3.67957 0.848953C4.25375 0.626659 4.90621 0.475462 5.86466 0.430463C6.10405 0.419664 6.30384 0.410664 6.50543 0.403464L6.68002 0.398064C7.33626 0.382074 7.99269 0.375174 8.64912 0.377365L10.4994 0.376465ZM9.57428 4.87636C8.38086 4.87636 7.23633 5.35045 6.39246 6.19434C5.54859 7.03824 5.0745 8.1828 5.0745 9.37625C5.0745 10.5697 5.54859 11.7143 6.39246 12.5582C7.23633 13.402 8.38086 13.8761 9.57428 13.8761C10.7677 13.8761 11.9122 13.402 12.7561 12.5582C13.6 11.7143 14.074 10.5697 14.074 9.37625C14.074 8.1828 13.6 7.03824 12.7561 6.19434C11.9122 5.35045 10.7677 4.87636 9.57428 4.87636ZM9.57428 6.67631C9.92883 6.67625 10.2799 6.74603 10.6075 6.88166C10.9351 7.01729 11.2328 7.21612 11.4835 7.46679C11.7342 7.71746 11.9332 8.01506 12.0689 8.34261C12.2046 8.67016 12.2745 9.02124 12.2746 9.3758C12.2746 9.73036 12.2049 10.0815 12.0692 10.4091C11.9336 10.7366 11.7348 11.0343 11.4841 11.2851C11.2335 11.5358 10.9359 11.7348 10.6083 11.8705C10.2808 12.0062 9.92973 12.0761 9.57518 12.0762C8.85913 12.0762 8.17241 11.7917 7.66608 11.2854C7.15976 10.7791 6.87531 10.0923 6.87531 9.37625C6.87531 8.66018 7.15976 7.97344 7.66608 7.4671C8.17241 6.96077 8.85913 6.67631 9.57518 6.67631M14.2999 3.52639C14.0016 3.52639 13.7155 3.64491 13.5045 3.85589C13.2935 4.06686 13.175 4.353 13.175 4.65136C13.175 4.94972 13.2935 5.23586 13.5045 5.44684C13.7155 5.65781 14.0016 5.77633 14.2999 5.77633C14.5983 5.77633 14.8844 5.65781 15.0954 5.44684C15.3064 5.23586 15.4249 4.94972 15.4249 4.65136C15.4249 4.353 15.3064 4.06686 15.0954 3.85589C14.8844 3.64491 14.5983 3.52639 14.2999 3.52639Z" fill="#1B46D6"/>
</svg>
