<svg width="20" height="21" viewBox="0 0 20 21" fill="none" xmlns="http://www.w3.org/2000/svg">
<path d="M10 0.376465C15.523 0.376465 20 4.85347 20 10.3765C20 15.8995 15.523 20.3765 10 20.3765C4.477 20.3765 0 15.8995 0 10.3765C0 4.85347 4.477 0.376465 10 0.376465ZM14.442 6.37646C14.061 6.38346 13.476 6.58346 10.663 7.73846C8.68848 8.56276 6.71944 9.40011 4.756 10.2505C4.276 10.4391 4.025 10.6235 4.003 10.8035C3.959 11.1495 4.463 11.2565 5.097 11.4605C5.614 11.6265 6.31 11.8205 6.672 11.8285C7 11.8351 7.366 11.7018 7.77 11.4285C10.5293 9.58846 11.9537 8.6588 12.043 8.63946C12.106 8.62546 12.193 8.60746 12.253 8.65946C12.312 8.71146 12.306 8.80946 12.299 8.83646C12.249 9.04746 9.658 11.3745 9.509 11.5275L9.437 11.5995C8.887 12.1425 8.332 12.4975 9.29 13.1205C10.156 13.6835 10.66 14.0425 11.55 14.6205C12.12 14.9885 12.567 15.4255 13.155 15.3725C13.426 15.3475 13.705 15.0965 13.848 14.3465C14.183 12.5765 14.843 8.73847 14.995 7.15647C15.0046 7.02525 14.9989 6.89337 14.978 6.76346C14.9657 6.65856 14.9142 6.56216 14.834 6.49346C14.713 6.39546 14.525 6.37546 14.442 6.37646Z" fill="#1B46D6"/>
</svg>
