<svg width="51" height="51" viewBox="0 0 51 51" fill="none" xmlns="http://www.w3.org/2000/svg">
<path d="M41.9996 25.7305C41.9996 30.1508 40.2437 34.39 37.1181 37.5156C33.9925 40.6412 29.7532 42.3972 25.333 42.3972C20.9127 42.3972 16.6735 40.6412 13.5479 37.5156C10.4222 34.39 8.6663 30.1508 8.6663 25.7305C8.6663 21.3102 10.4222 17.071 13.5479 13.9454C16.6735 10.8198 20.9127 9.06382 25.333 9.06382C29.7532 9.06382 33.9925 10.8198 37.1181 13.9454C40.2437 17.071 41.9996 21.3102 41.9996 25.7305ZM25.333 46.5638C36.8392 46.5638 46.1663 37.2367 46.1663 25.7305C46.1663 14.2242 36.8392 4.89716 25.333 4.89716C13.8267 4.89716 4.49963 14.2242 4.49963 25.7305C4.49963 37.2367 13.8267 46.5638 25.333 46.5638ZM26.0788 20.2763C24.0538 21.1194 20.0045 22.8645 13.9309 25.5117C12.9434 25.9034 12.4267 26.2867 12.3809 26.6617C12.3017 27.2951 13.0955 27.5451 14.1767 27.8847L14.6309 28.0305C15.6934 28.3763 17.1267 28.7805 17.8705 28.7972C18.5455 28.811 19.2982 28.5333 20.1288 27.9638C25.8038 24.1305 28.733 22.1937 28.9163 22.1534C29.0476 22.1242 29.2267 22.0867 29.3476 22.1951C29.4705 22.3034 29.458 22.5076 29.4455 22.5638C29.3663 22.8992 26.2496 25.7972 24.6371 27.2951C24.1594 27.7451 23.6851 28.1985 23.2142 28.6555C22.2267 29.6076 21.4851 30.3222 23.2559 31.4888C25.0496 32.6722 26.8601 33.8513 28.6101 35.0992C29.4726 35.7159 30.2476 36.2659 31.2059 36.1805C31.7621 36.1284 32.3371 35.6055 32.6288 34.043C33.3205 30.3555 34.6767 22.3597 34.9892 19.0638C35.0074 18.7904 34.9955 18.5159 34.9538 18.2451C34.9292 18.0271 34.8236 17.8264 34.658 17.6826C34.408 17.4784 34.0226 17.4367 33.8517 17.4388C33.0684 17.4534 31.8663 17.8701 26.0809 20.2763" fill="white"/>
</svg>
