<svg width="41" height="41" viewBox="0 0 41 41" fill="none" xmlns="http://www.w3.org/2000/svg">
<circle cx="20.7603" cy="20.3522" r="20" fill="#FCFCFE"/>
<path d="M30.5665 25.4675C30.5665 25.3845 30.4835 25.3845 30.4835 25.3014C30.1514 24.6373 29.4042 23.807 28.4079 22.8938C27.9098 22.4787 27.6607 22.1466 27.4947 21.9805C27.2456 21.6484 27.2456 21.3994 27.3286 21.0673C27.4116 20.8182 27.7437 20.4031 28.3249 19.6559C28.657 19.2408 28.823 18.9917 29.0721 18.7426C30.3174 17.0822 30.8986 16.0029 30.7325 15.5047L30.6495 15.4217C30.5665 15.3387 30.4835 15.2557 30.3174 15.2557C30.1514 15.1727 29.9023 15.1727 29.6533 15.2557H26.4984C26.4154 15.2557 26.4154 15.2557 26.2493 15.2557C26.1663 15.2557 26.0833 15.2557 26.0833 15.2557H26.0003H25.9172L25.8342 15.3387C25.7512 15.4217 25.7512 15.4217 25.7512 15.5047C25.4191 16.418 25.004 17.1652 24.5889 17.9954C24.3398 18.4105 24.0907 18.8257 23.8417 19.1578C23.5926 19.4898 23.4265 19.7389 23.2605 19.905C23.0944 20.071 22.9284 20.154 22.8454 20.3201C22.7623 20.4031 22.5963 20.4861 22.5963 20.4031C22.5133 20.4031 22.4303 20.4031 22.4303 20.3201C22.3472 20.237 22.2642 20.154 22.1812 20.071C22.0982 19.988 22.0982 19.8219 22.0151 19.6559C22.0151 19.4898 22.0151 19.3238 22.0151 19.2408C22.0151 19.1577 22.0151 18.9087 22.0151 18.7426C22.0151 18.4936 22.0151 18.3275 22.0151 18.2445C22.0151 17.9954 22.0151 17.6633 22.0151 17.3313C22.0151 16.9992 22.0151 16.7501 22.0151 16.584C22.0151 16.418 22.0151 16.1689 22.0151 16.0029C22.0151 15.7538 22.0151 15.5878 22.0151 15.5047C22.0151 15.4217 21.9321 15.2557 21.9321 15.1726C21.8491 15.0896 21.7661 15.0066 21.6831 14.9236C21.6 14.8406 21.434 14.8406 21.351 14.7575C20.9359 14.6745 20.4377 14.5915 19.8566 14.5915C18.5282 14.5915 17.6149 14.6745 17.2828 14.8406C17.1168 14.9236 16.9508 15.0066 16.8677 15.1726C16.7017 15.3387 16.7017 15.4217 16.7847 15.4217C17.1998 15.5047 17.5319 15.6708 17.698 15.9199L17.781 16.0859C17.864 16.1689 17.864 16.335 17.947 16.584C18.03 16.8331 18.03 17.0822 18.03 17.4143C18.03 17.9124 18.03 18.4105 18.03 18.7426C18.03 19.1578 17.947 19.4068 17.947 19.6559C17.947 19.905 17.864 20.071 17.781 20.154C17.698 20.3201 17.698 20.4031 17.6149 20.4031C17.6149 20.4031 17.6149 20.4861 17.5319 20.4861C17.4489 20.4861 17.3659 20.5691 17.1998 20.5691C17.1168 20.5691 16.9508 20.4861 16.8677 20.4031C16.7017 20.3201 16.5356 20.154 16.4526 19.988C16.2866 19.8219 16.1205 19.5729 15.9545 19.2408C15.7884 18.9087 15.5394 18.5766 15.3733 18.0785L15.2073 17.7464C15.1243 17.5803 14.9582 17.2482 14.7922 16.8331C14.6261 16.418 14.4601 16.0859 14.294 15.6708C14.211 15.5047 14.128 15.4217 14.045 15.3387H13.9619C13.9619 15.3387 13.8789 15.2557 13.7959 15.2557C13.7129 15.2557 13.6298 15.1726 13.5468 15.1726H10.558C10.2259 15.1726 10.0598 15.2557 9.97683 15.3387L9.8938 15.4217C9.8938 15.4217 9.8938 15.5047 9.8938 15.5878C9.8938 15.6708 9.8938 15.7538 9.97683 15.9199C10.3919 16.9161 10.8901 17.9124 11.3882 18.9087C11.8864 19.8219 12.3845 20.6522 12.7166 21.2333C13.1317 21.8145 13.4638 22.3956 13.8789 22.8938C14.294 23.3919 14.5431 23.724 14.6261 23.8901C14.7921 24.0561 14.8752 24.1391 14.9582 24.2221L15.2073 24.4712C15.3733 24.6373 15.6224 24.8863 15.9545 25.1354C16.2866 25.3845 16.7017 25.6335 17.1168 25.8826C17.5319 26.1317 18.0301 26.2977 18.5282 26.4638C19.1094 26.6298 19.6075 26.7128 20.1056 26.6298H21.351C21.6 26.6298 21.7661 26.5468 21.9321 26.3807L22.0151 26.2977C22.0151 26.2147 22.0982 26.2147 22.0982 26.1317C22.0982 26.0487 22.0982 25.9656 22.0982 25.7996C22.0982 25.4675 22.0982 25.2184 22.1812 24.9694C22.2642 24.7203 22.2642 24.5542 22.3473 24.3882C22.4303 24.2222 22.5133 24.1391 22.5963 24.0561C22.6793 23.9731 22.7624 23.8901 22.7624 23.8901H22.8454C23.0114 23.807 23.2605 23.8901 23.4265 24.0561C23.6756 24.2221 23.9247 24.4712 24.0907 24.7203C24.2568 24.9694 24.5058 25.2184 24.8379 25.5505C25.17 25.8826 25.4191 26.1317 25.5851 26.2147L25.8342 26.3807C26.0002 26.4638 26.1663 26.5468 26.4154 26.6298C26.6644 26.7128 26.8305 26.7128 26.9965 26.7128L29.8193 26.6298C30.0684 26.6298 30.3174 26.5468 30.4835 26.4638C30.6495 26.3807 30.7325 26.2977 30.7325 26.1317C30.7325 26.0487 30.7325 25.8826 30.7325 25.7996C30.5665 25.6335 30.5665 25.5505 30.5665 25.4675Z" fill="#1B46D6"/>
</svg>
