<svg width="51" height="51" viewBox="0 0 51 51" fill="none" xmlns="http://www.w3.org/2000/svg">
<path fill-rule="evenodd" clip-rule="evenodd" d="M25.6665 9.06382C22.7283 9.06317 19.8421 9.83926 17.3005 11.3135C14.7589 12.7876 12.6522 14.9075 11.1939 17.4583C9.73557 20.009 8.97747 22.9 8.99644 25.8381C9.01541 28.7762 9.81077 31.6571 11.3019 34.1888L12.4873 35.6847L11.0352 40.5992L15.8686 39.2492L16.6581 39.7555C18.8372 41.1545 21.3122 42.0265 23.887 42.3023C26.4617 42.5782 29.0653 42.2503 31.4912 41.3447C33.9172 40.4391 36.0987 38.9806 37.8629 37.0851C39.627 35.1895 40.9252 32.909 41.6545 30.4243C42.3838 27.9397 42.524 25.3193 42.0642 22.771C41.6044 20.2226 40.5571 17.8165 39.0055 15.7434C37.4538 13.6704 35.4404 11.9873 33.125 10.8279C30.8097 9.66844 28.2559 9.06445 25.6665 9.06382ZM4.83315 25.7305C4.83315 14.2242 14.1602 4.89716 25.6665 4.89716C37.1727 4.89716 46.4998 14.2242 46.4998 25.7305C46.4998 37.2367 37.1727 46.5638 25.6665 46.5638C21.9963 46.5691 18.3903 45.6007 15.2165 43.7576L4.90815 46.6367L7.87898 36.5763L7.86648 36.5617L7.79773 36.4472C5.85301 33.2112 4.82801 29.5059 4.83315 25.7305Z" fill="white"/>
<path d="M35.531 28.8388C35.4519 28.8013 32.4123 27.3055 31.8727 27.1097C31.6476 27.0166 31.4078 26.9637 31.1644 26.9534C30.756 26.9534 30.4102 27.1576 30.1435 27.5597C29.8394 28.0118 28.9206 29.0847 28.6373 29.4055C28.5998 29.4472 28.5498 29.4993 28.5185 29.4993C28.4915 29.4993 28.0206 29.3055 27.879 29.243C24.6206 27.8263 22.1477 24.4243 21.8081 23.8493C21.7602 23.7659 21.7581 23.7305 21.7581 23.7305C21.7685 23.6868 21.879 23.5763 21.9352 23.5201C22.1019 23.3555 22.281 23.1409 22.454 22.9305L22.6977 22.6388C22.9498 22.3472 23.0623 22.118 23.1915 21.8576L23.2602 21.7201C23.3633 21.5115 23.4134 21.2808 23.4061 21.0482C23.3989 20.8157 23.3344 20.5885 23.2185 20.3868C23.1477 20.243 21.8644 17.1472 21.729 16.8222C21.3998 16.0368 20.9665 15.6722 20.3644 15.6722C20.3081 15.6722 20.3644 15.6722 20.131 15.6826C19.8456 15.693 18.2915 15.8993 17.604 16.3305C16.8748 16.7888 15.6456 18.2555 15.6456 20.8305C15.6456 23.1472 17.1144 25.3347 17.7456 26.1659L17.831 26.2909C20.2498 29.8222 23.2644 32.4388 26.3185 33.6597C29.2602 34.8347 30.654 34.9722 31.4456 34.9722C31.779 34.9722 32.0456 34.9451 32.279 34.9222L32.429 34.9076C33.4456 34.818 35.679 33.6597 36.1873 32.2493C36.5873 31.1368 36.6935 29.9222 36.4269 29.4805C36.2435 29.1805 35.929 29.0305 35.531 28.8388Z" fill="white"/>
</svg>
