<svg width="20" height="21" viewBox="0 0 20 21" fill="none" xmlns="http://www.w3.org/2000/svg">
<path d="M10 0.122559C15.523 0.122559 20 4.59956 20 10.1226C20 15.6455 15.523 20.1225 10 20.1225C8.23276 20.1256 6.49659 19.6579 4.97001 18.7675L0.00401545 20.1225L1.35601 15.1545C0.464974 13.6275 -0.00308162 11.8906 1.52687e-05 10.1226C1.52687e-05 4.59956 4.47701 0.122559 10 0.122559ZM6.59201 5.42255L6.39201 5.43055C6.2627 5.43946 6.13636 5.47343 6.02001 5.53055C5.91159 5.59207 5.81257 5.66885 5.72601 5.75855C5.60601 5.87155 5.53801 5.96955 5.46501 6.06455C5.09513 6.54546 4.89598 7.13587 4.89901 7.74255C4.90101 8.23255 5.02901 8.70955 5.22901 9.15555C5.63801 10.0576 6.31101 11.0125 7.19901 11.8975C7.41301 12.1105 7.62301 12.3245 7.84901 12.5235C8.95244 13.495 10.2673 14.1955 11.689 14.5695L12.257 14.6565C12.442 14.6665 12.627 14.6525 12.813 14.6435C13.1042 14.6282 13.3885 14.5494 13.646 14.4125C13.7769 14.3449 13.9046 14.2715 14.029 14.1925C14.029 14.1925 14.0713 14.1639 14.154 14.1025C14.289 14.0025 14.372 13.9315 14.484 13.8145C14.568 13.7279 14.638 13.6272 14.694 13.5125C14.772 13.3495 14.85 13.0385 14.882 12.7795C14.906 12.5815 14.899 12.4735 14.896 12.4065C14.892 12.2995 14.803 12.1885 14.706 12.1415L14.124 11.8805C14.124 11.8805 13.254 11.5015 12.722 11.2596C12.6663 11.2353 12.6067 11.2214 12.546 11.2185C12.4776 11.2114 12.4084 11.219 12.3432 11.2409C12.278 11.2629 12.2182 11.2985 12.168 11.3455C12.163 11.3435 12.096 11.4006 11.373 12.2765C11.3315 12.3323 11.2743 12.3745 11.2088 12.3976C11.1433 12.4208 11.0723 12.4239 11.005 12.4065C10.9398 12.3892 10.876 12.3671 10.814 12.3405C10.69 12.2885 10.647 12.2685 10.562 12.2325C9.98788 11.9825 9.45645 11.644 8.98701 11.2296C8.86101 11.1196 8.74401 10.9995 8.62401 10.8835C8.23062 10.5068 7.88776 10.0805 7.60401 9.61555L7.54501 9.52055C7.50327 9.45635 7.46905 9.38756 7.44301 9.31555C7.40501 9.16855 7.50401 9.05055 7.50401 9.05055C7.50401 9.05055 7.74701 8.78455 7.86001 8.64055C7.97001 8.50055 8.06301 8.36455 8.12301 8.26755C8.24101 8.07755 8.27801 7.88255 8.21601 7.73155C7.93601 7.04755 7.64668 6.36722 7.34801 5.69055C7.28901 5.55655 7.11401 5.46055 6.95501 5.44155C6.90101 5.43489 6.84701 5.42955 6.79301 5.42555C6.65874 5.41785 6.5241 5.41919 6.39001 5.42955L6.59201 5.42255Z" fill="#1B46D6"/>
</svg>
